<svg xmlns="http://www.w3.org/2000/svg" viewBox="0 0 200 200">
  <!-- Blue shield background -->
  <path d="M100 10 L180 40 L180 120 C180 160 150 190 100 200 C50 190 20 160 20 120 L20 40 Z" fill="#005826"/>
  <path d="M100 25 L165 50 L165 120 C165 150 140 180 100 190 C60 180 35 150 35 120 L35 50 Z" fill="#FFFFFF"/>
  
  <!-- Stylized wave/representation -->
  <path d="M40 95 Q70 75 100 95 Q130 115 160 95" stroke="#005826" stroke-width="8" fill="none"/>
  <path d="M40 110 Q70 90 100 110 Q130 130 160 110" stroke="#005826" stroke-width="8" fill="none"/>
  <path d="M40 125 Q70 105 100 125 Q130 145 160 125" stroke="#005826" stroke-width="8" fill="none"/>
  
  <!-- HKUST Text -->
  <text x="100" y="165" font-family="Arial, sans-serif" font-size="14" font-weight="bold" fill="#005826" text-anchor="middle">HKUST</text>
  <text x="100" y="180" font-family="Arial, sans-serif" font-size="6" fill="#005826" text-anchor="middle">HONG KONG</text>
</svg>
