<svg xmlns="http://www.w3.org/2000/svg" viewBox="0 0 100 100">
  <defs>
    <linearGradient id="blueGrad" x1="0%" y1="0%" x2="0%" y2="100%">
      <stop offset="0%" style="stop-color:#2563EB"/>
      <stop offset="100%" style="stop-color:#1E40AF"/>
    </linearGradient>
  </defs>
  
  <!-- Shield outer ring - Blue -->
  <path d="M10 5 L75 5 C85 5 90 12 90 25 L90 60 C90 85 50 98 50 98 C50 98 10 85 10 60 L10 25 C10 12 15 5 25 5 Z" 
        fill="none" stroke="url(#blueGrad)" stroke-width="5"/>
  
  <!-- White background inside -->
  <path d="M16 13 L69 13 C76 13 80 17 80 24 L80 58 C80 78 50 90 50 90 C50 90 20 78 20 58 L20 24 C20 17 24 13 31 13 Z" 
        fill="#fff"/>
  
  <!-- Simplified å­ (child) - Blue -->
  <g transform="translate(28, 26)" stroke="#2563EB" stroke-width="4" stroke-linecap="round" fill="none">
    <!-- Head -->
    <circle cx="22" cy="14" r="10" stroke-width="4"/>
    
    <!-- Body -->
    <path d="M22 24 L22 52 Q22 60 30 60 L30 52 Q30 48 36 48 Q42 48 42 52 L42 60" 
          stroke-width="5"/>
    
    <!-- Arms -->
    <path d="M10 36 Q6 42 10 48" stroke-width="4"/>
    <path d="M34 36 Q38 42 34 48" stroke-width="4"/>
  </g>
</svg>
