<svg xmlns="http://www.w3.org/2000/svg" viewBox="0 0 400 100">
  <defs>
    <!-- Premium blue gradient -->
    <linearGradient id="blueGrad" x1="0%" y1="0%" x2="0%" y2="100%">
      <stop offset="0%" style="stop-color:#2563EB"/>
      <stop offset="100%" style="stop-color:#1E40AF"/>
    </linearGradient>
  </defs>
  
  <!-- Shield outer ring - Blue -->
  <path d="M20 10 L80 10 C90 10 95 15 95 25 L95 60 C95 85 55 98 55 98 C55 98 15 85 15 60 L15 25 C15 15 20 10 30 10 Z" 
        fill="none" stroke="url(#blueGrad)" stroke-width="6"/>
  
  <!-- White background inside shield -->
  <path d="M26 18 L74 18 C82 18 86 22 86 28 L86 58 C86 78 55 90 55 90 C55 90 24 78 24 58 L24 28 C24 22 28 18 36 18 Z" 
        fill="#fff"/>
  
  <!-- Oracle bone style character (simplified 学) - Blue -->
  <g transform="translate(38, 30)" stroke="#2563EB" stroke-width="4" stroke-linecap="round" fill="none">
    <!-- Top X (算筹符号) -->
    <line x1="5" y1="10" x2="25" y2="10"/>
    <line x1="5" y1="16" x2="25" y2="16"/>
    <line x1="2" y1="10" x2="2" y2="16"/>
    <line x1="28" y1="10" x2="28" y2="16"/>
    
    <!-- Child/子 simplified -->
    <path d="M17 25 L17 42 Q17 48 22 48 L22 42 Q22 40 25 40 Q28 40 28 42 L28 48" 
          stroke-width="4"/>
    <path d="M17 28 Q17 34 22 34 Q27 34 27 28" stroke-width="3"/>
    
    <!-- Hands -->
    <path d="M8 36 Q5 40 8 44" stroke-width="3"/>
    <path d="M36 36 Q39 40 36 44" stroke-width="3"/>
  </g>
  
  <!-- Text -->
  <text x="108" y="48" font-family="'PingFang SC', 'Microsoft YaHei', serif" 
        font-size="40" font-weight="700" fill="#1E40AF">校徽网</text>
  <text x="110" y="72" font-family="-apple-system, BlinkMacSystemFont, serif" 
        font-size="10" fill="#666" letter-spacing="5">SCHOOL BADGE COLLECTION</text>
</svg>
