<svg xmlns="http://www.w3.org/2000/svg" viewBox="0 0 100 100">
  <defs>
    <linearGradient id="inkGrad" x1="0%" y1="0%" x2="0%" y2="100%">
      <stop offset="0%" style="stop-color:#1a1a1a"/>
      <stop offset="100%" style="stop-color:#0a0a0a"/>
    </linearGradient>
    <linearGradient id="sealGrad" x1="0%" y1="0%" x2="100%" y2="100%">
      <stop offset="0%" style="stop-color:#C41E3A"/>
      <stop offset="100%" style="stop-color:#8B0000"/>
    </linearGradient>
  </defs>
  
  <!-- Seal frame -->
  <rect x="5" y="5" width="90" height="90" rx="6" 
        fill="none" stroke="url(#sealGrad)" stroke-width="6"/>
  
  <!-- Inner black -->
  <rect x="12" y="12" width="76" height="76" rx="3" fill="url(#inkGrad)"/>
  
  <!-- Oracle bone "学" simplified -->
  <g transform="translate(24, 20)" stroke="#C41E3A" stroke-width="5" stroke-linecap="round" fill="none">
    <!-- X marks -->
    <line x1="10" y1="14" x2="26" y2="14"/>
    <line x1="10" y1="22" x2="26" y2="22"/>
    
    <!-- Simplified child -->
    <path d="M18 34 L18 52 Q18 58 24 58 L24 50 Q24 48 28 48 Q32 48 32 50 L32 58" 
          stroke="#C41E3A" stroke-width="5" fill="none"/>
    
    <!-- Hands -->
    <path d="M8 42 Q4 48 8 54" stroke-width="4"/>
    <path d="M42 42 Q46 48 42 54" stroke-width="4"/>
  </g>
</svg>
